<?xml version="1.0" encoding="utf-8"?>
<!-- Generator: Adobe Illustrator 23.0.0, SVG Export Plug-In . SVG Version: 6.00 Build 0)  -->
<svg version="1.1"
	 id="Layer_1" xmlns:cc="http://creativecommons.org/ns#" xmlns:dc="http://purl.org/dc/elements/1.1/" xmlns:inkscape="http://www.inkscape.org/namespaces/inkscape" xmlns:rdf="http://www.w3.org/1999/02/22-rdf-syntax-ns#" xmlns:sodipodi="http://sodipodi.sourceforge.net/DTD/sodipodi-0.dtd" xmlns:svg="http://www.w3.org/2000/svg"
	 xmlns="http://www.w3.org/2000/svg" xmlns:xlink="http://www.w3.org/1999/xlink" x="0px" y="0px" viewBox="0 0 108 108"
	 style="enable-background:new 0 0 108 108;" xml:space="preserve">
<path d="M47,10c-3.5,0-6.3,2.6-6.8,6H39c-3.7,0-6.8,2.6-7.7,6H22c-3.3,0-6,2.7-6,6V92c0,3.3,2.7,6,6,6H72c3.3,0,6-2.7,6-6V80
	c4.1-2.9,7.4-5.7,9.7-9.6c3-5.1,4.3-11.7,4.3-22.4c0-0.8-0.5-1.6-1.3-1.9c-6.4-2.2-12-5.3-16.4-8.7c-0.4-0.3-0.8-0.4-1.3-0.4
	c-0.4,0-0.8,0.2-1.1,0.4c-4.4,3.4-10,6.5-16.4,8.7c-0.8,0.3-1.3,1-1.3,1.9c0,10.7,1.3,17.3,4.3,22.4s7.6,8.2,13.6,12.2
	c0.3,0.2,0.7,0.3,1.1,0.3h0c0.4,0,0.7-0.1,1-0.3V92c0,1.2-0.9,2-2,2H22c-1.2,0-2-0.9-2-2V28c0-1.2,0.9-2,2-2h9v4c0,1.1,0.9,2,2,2h28
	c1.1,0,2-0.9,2-2v-4h9c1.2,0,2,0.9,2,2V31c0,1.1,0.9,2,2,2c1.1,0,2-0.9,2-2c0,0,0,0,0-0.1V28c0-3.3-2.7-6-6-6h-9.2
	c-0.9-3.4-4-6-7.7-6h-1.2C53.3,12.6,50.5,10,47,10z M47,14c1.7,0,3,1.3,3,3v1c0,1.1,0.9,2,2,2h3c2.3,0,4,1.7,4,4v4H35v-4
	c0-2.3,1.7-4,4-4h3c1.1,0,2-0.9,2-2v-1C44,15.3,45.3,14,47,14z M73,41.4c4.2,3.1,9.2,5.8,14.9,7.9c-0.1,9.5-1.3,15.1-3.7,19.1
	C82,72.2,78.3,75,73,78.5c-5.3-3.5-9-6.3-11.3-10.2c-2.4-4-3.6-9.6-3.7-19.1C63.7,47.2,68.8,44.5,73,41.4z M72.8,51
	c-1,0.1-1.8,1-1.8,2v5h-5c-0.1,0-0.1,0-0.2,0c-1.1,0.1-2,1-1.9,2.1c0.1,1.1,1,2,2.1,1.9c0,0,0,0,0,0h5v5c-0.1,1.1,0.6,2.1,1.7,2.2
	c1.1,0.1,2.1-0.6,2.2-1.7c0-0.2,0-0.3,0-0.5v-5h5c1.1,0,2-0.9,2-2c0-1.1-0.9-2-2-2c0,0,0,0-0.1,0h-5v-5c0-1.1-0.9-2-2-2c0,0,0,0,0,0
	C72.9,51,72.9,51,72.8,51z"/>
</svg>
