<svg xmlns:dc="http://purl.org/dc/elements/1.1/" xmlns:cc="http://creativecommons.org/ns#" xmlns:rdf="http://www.w3.org/1999/02/22-rdf-syntax-ns#" xmlns:svg="http://www.w3.org/2000/svg" xmlns="http://www.w3.org/2000/svg" xmlns:sodipodi="http://sodipodi.sourceforge.net/DTD/sodipodi-0.dtd" xmlns:inkscape="http://www.inkscape.org/namespaces/inkscape" fill="#000000" version="1.1" x="0px" y="0px" viewBox="0 0 100 125"><path style="font-size:medium;font-style:normal;font-variant:normal;font-weight:normal;font-stretch:normal;text-indent:0;text-align:start;text-decoration:none;line-height:normal;letter-spacing:normal;word-spacing:normal;text-transform:none;direction:ltr;block-progression:tb;writing-mode:lr-tb;text-anchor:start;baseline-shift:baseline;opacity:1;color:#000000;fill:#000000;fill-opacity:1;stroke:none;stroke-width:3.99999976000000010;marker:none;visibility:visible;display:inline;overflow:visible;enable-background:accumulate;font-family:Sans;-inkscape-font-specification:Sans" d="M 43 6 C 39.510842 6 36.727958 8.6448278 36.21875 12 L 35 12 C 31.296214 12 28.179648 14.566239 27.28125 18 L 18.03125 18 C 14.72437 18 12 20.72437 12 24.03125 L 12 87.96875 C 12 91.27563 14.72437 94 18.03125 94 L 67.96875 94 C 71.27563 94 74 91.27563 74 87.96875 L 74 76 C 78.110629 73.095893 81.365686 70.318811 83.6875 66.40625 C 86.699965 61.329852 87.96875 54.658349 87.96875 44 A 2.0001999 2.0001999 0 0 0 86.625 42.125 C 80.214362 39.903825 74.663206 36.812834 70.21875 33.40625 A 2.0001999 2.0001999 0 0 0 68.90625 33 A 2.0001999 2.0001999 0 0 0 67.78125 33.40625 C 63.340249 36.810186 57.75623 39.903186 51.34375 42.125 A 2.0001999 2.0001999 0 0 0 50 44 C 50 54.658349 51.268785 61.329852 54.28125 66.40625 C 57.293715 71.482648 61.831953 74.641946 67.84375 78.65625 A 2.0001999 2.0001999 0 0 0 68.96875 79 L 69 79 A 2.0001999 2.0001999 0 0 0 70 78.71875 L 70 87.96875 C 70 89.124368 69.124368 90 67.96875 90 L 18.03125 90 C 16.875632 90 16 89.124368 16 87.96875 L 16 24.03125 C 16 22.875632 16.875632 22 18.03125 22 L 27 22 L 27 26 A 2.0001999 2.0001999 0 0 0 29 28 L 57 28 A 2.0001999 2.0001999 0 0 0 59 26 L 59 22 L 67.96875 22 C 69.124368 22 70 22.875632 70 24.03125 L 70 26.96875 A 2.0001999 2.0001999 0 1 0 74 26.96875 L 74 24.03125 C 74 20.72437 71.27563 18 67.96875 18 L 58.71875 18 C 57.820352 14.566239 54.703786 12 51 12 L 49.78125 12 C 49.272042 8.6448278 46.489158 6 43 6 z M 43 10 C 44.696595 10 46 11.303405 46 13 L 46 14 A 2.0001999 2.0001999 0 0 0 48 16 L 51 16 C 53.250595 16 55 17.749405 55 20 L 55 24 L 31 24 L 31 20 C 31 17.749405 32.749405 16 35 16 L 38 16 A 2.0001999 2.0001999 0 0 0 40 14 L 40 13 C 40 11.303405 41.303405 10 43 10 z M 69 37.375 C 73.232157 40.452028 78.245585 43.162118 83.9375 45.28125 C 83.829211 54.758571 82.612907 60.361942 80.25 64.34375 C 77.958787 68.204745 74.241345 70.99216 69 74.53125 C 63.745852 70.984466 60.013346 68.210444 57.71875 64.34375 C 55.355843 60.361942 54.139539 54.758571 54.03125 45.28125 C 59.726612 43.162279 64.761143 40.454634 69 37.375 z M 68.78125 46.96875 A 2.0001999 2.0001999 0 0 0 67 49 L 67 54 L 62 54 A 2.0001999 2.0001999 0 0 0 61.78125 54 A 2.0029885 2.0029885 0 1 0 62 58 L 67 58 L 67 63 A 2.0001999 2.0001999 0 1 0 70.96875 63 L 70.96875 58 L 76 58 A 2.0001999 2.0001999 0 1 0 76 54 L 70.96875 54 L 70.96875 49 A 2.0001999 2.0001999 0 0 0 68.96875 46.96875 A 2.0001999 2.0001999 0 0 0 68.78125 46.96875 z "/><text x="0" y="115" fill="#000000" font-size="5px" font-weight="bold" font-family="'Helvetica Neue', Helvetica, Arial-Unicode, Arial, Sans-serif">Created by romzicon</text><text x="0" y="120" fill="#000000" font-size="5px" font-weight="bold" font-family="'Helvetica Neue', Helvetica, Arial-Unicode, Arial, Sans-serif">from the Noun Project</text></svg>