<?xml version="1.0" encoding="utf-8"?>
<!-- Generator: Adobe Illustrator 23.0.0, SVG Export Plug-In . SVG Version: 6.00 Build 0)  -->
<svg version="1.1" id="Layer_1" xmlns="http://www.w3.org/2000/svg" xmlns:xlink="http://www.w3.org/1999/xlink" x="0px" y="0px"
	 viewBox="0 0 108.2 107.8" style="enable-background:new 0 0 108.2 107.8;" xml:space="preserve">
<g>
	<path d="M61.5,72.1c1.1-0.7,2.3-1.6,3.4-2.6c3.2-2.8,6.6-6.6,9.7-11.9l0.1-0.1c2.4-4.3,4.5-9.4,5.4-14.5c0.6-3.5,0.8-7,0.3-10.2
		c-1.9,0.7-4.2,1.9-6.6,3.7c-2.5,1.8-5.1,4.2-7.7,7.4c0.2,2,0.4,4.1,0.4,6.3c0,6.7-1.1,12.2-2.7,16.8C63.1,68.8,62.3,70.5,61.5,72.1
		z M64.2,81.5L64.2,81.5c3.1,1.1,6.9,1.8,11.5,1.8c4.6,0,8.4-0.7,11.4-1.8c2.8-1,4.9-2.2,6.4-3.3c-0.8-0.6-1.7-1.1-2.7-1.7
		c-1.5-0.8-3.3-1.5-5.4-2.1c-0.2,0.2-0.5,0.3-0.8,0.5c-5.8,3.4-11.2,5.2-15.9,6.1C67.2,81.2,65.7,81.4,64.2,81.5z M90.5,71
		c0.9,0.4,1.8,0.8,2.6,1.2c2.8,1.5,4.8,3.1,6,4.3c0.9,0.9,0.9,2.5,0,3.4c-1.7,1.8-5.2,4.4-10.3,6.2c-3.5,1.2-7.9,2.1-13.1,2.1
		c-5.2,0-9.5-0.9-13.1-2.1c-3.8-1.3-6.6-3.1-8.6-4.7c-1.9,1.6-4.8,3.3-8.6,4.7c-3.5,1.2-7.9,2.1-13,2.1c-5.2,0-9.5-0.9-13.1-2.1
		c-5.1-1.8-8.6-4.4-10.3-6.2c-0.9-1-0.9-2.5,0-3.4c1.2-1.3,3.2-2.9,6-4.3c0.8-0.4,1.7-0.8,2.6-1.2c-2.9-2.2-5.3-4.5-7.3-6.8
		c-4.6-5.3-6.7-10.3-7.4-13.5c-0.3-1.3,0.4-2.6,1.7-3c2.6-0.7,6.8-1.3,12.1-0.8c2.3,0.2,4.9,0.7,7.6,1.5c-0.4-1.5-0.8-3.1-1.1-4.6
		c-0.9-5.1-1-10.3,0.4-15c0.4-1.3,1.8-2.1,3.1-1.7h0c2.6,0.7,6.4,2.2,10.7,5.3c1.9,1.4,3.9,3.1,5.9,5.1c0.4-1.5,0.8-2.9,1.2-4.2
		c2.3-6.6,5.7-11,8-13.2c1-0.9,2.5-0.9,3.4,0c2.3,2.2,5.6,6.6,8,13.2c0.4,1.3,0.9,2.7,1.2,4.2c2-2.1,4-3.8,5.9-5.1
		c4.2-3.1,8.1-4.6,10.7-5.3h0c1.3-0.4,2.7,0.4,3.1,1.7c1.3,4.8,1.3,9.9,0.4,15c-0.3,1.6-0.7,3.1-1.1,4.6c2.7-0.8,5.3-1.3,7.6-1.5
		c5.3-0.6,9.5,0,12.1,0.8c1.3,0.4,2,1.7,1.7,3c-0.8,3.1-2.9,8.2-7.4,13.5C95.9,66.4,93.5,68.7,90.5,71z M22.7,74.4
		c-2.1,0.6-3.9,1.3-5.4,2.1c-1.1,0.6-2,1.1-2.7,1.7c1.5,1.1,3.7,2.3,6.4,3.3c3.1,1.1,6.9,1.8,11.4,1.8s8.4-0.7,11.4-1.8l0.1,0
		c-1.4-0.1-2.9-0.3-4.5-0.6c-4.7-0.9-10.1-2.7-15.9-6.1C23.2,74.7,23,74.6,22.7,74.4z M26.5,54.4c-3.8-1.5-7.3-2.2-10.3-2.5
		c-3.1-0.3-5.6-0.2-7.7,0.1c1,2.5,2.7,5.6,5.6,9c2.8,3.2,6.6,6.6,11.9,9.7s10.1,4.7,14.3,5.5c1.5,0.3,2.9,0.4,4.2,0.6
		c-1.5-1-3-2.1-4.5-3.4c-3.6-3.1-7.4-7.4-10.7-13.2l-0.1-0.1C28.2,58.2,27.3,56.4,26.5,54.4z M42.1,43.8c-2.6-3.2-5.2-5.6-7.7-7.4
		c-2.5-1.8-4.8-3-6.6-3.7c-0.5,3.3-0.3,6.8,0.3,10.2c1,5.2,3,10.3,5.4,14.5l0.1,0.1c3,5.3,6.4,9.1,9.7,11.9c1.2,1,2.3,1.9,3.4,2.6
		c-0.8-1.6-1.6-3.3-2.3-5.2c-1.6-4.5-2.7-10.1-2.7-16.8C41.7,47.9,41.9,45.8,42.1,43.8z M59.1,35c-1.5-4.2-3.4-7.2-5-9.3
		c-1.7,2.1-3.5,5.2-5,9.3c-1.4,4-2.4,9.1-2.4,15.1s1,11.1,2.4,15.1c1.5,4.2,3.3,7.2,5,9.3c1.7-2.1,3.6-5.2,5-9.3
		c1.4-4,2.4-9.1,2.4-15.1C61.5,44,60.5,39,59.1,35z M81.7,54.4c-0.8,2-1.8,3.8-2.7,5.5L78.9,60c-3.3,5.8-7.1,10.1-10.7,13.2
		c-1.5,1.3-3.1,2.4-4.5,3.4c1.3-0.1,2.7-0.3,4.2-0.6c4.2-0.8,9.1-2.4,14.3-5.5c5.3-3,9.1-6.4,11.9-9.7c2.9-3.3,4.6-6.5,5.6-9
		c-2-0.3-4.6-0.4-7.7-0.1C88.9,52.2,85.5,52.9,81.7,54.4z"/>
</g>
</svg>
