<?xml version="1.0" encoding="utf-8"?>
<!-- Generator: Adobe Illustrator 23.0.0, SVG Export Plug-In . SVG Version: 6.00 Build 0)  -->
<svg version="1.1" id="Layer_1" xmlns="http://www.w3.org/2000/svg" xmlns:xlink="http://www.w3.org/1999/xlink" x="0px" y="0px"
	 viewBox="0 0 64 63.8" style="enable-background:new 0 0 64 63.8;" xml:space="preserve">
<title>wellness-yoga-healthy-well-exercise</title>
<path d="M31.9,16L31.9,16c6.1-0.2,8.7-2.8,9.1-8.9c0-0.6-0.4-1-0.9-1.1C40,6,40,6,40,6c-1.5,0-2.9,0.3-4.3,0.8
	C35,5.1,34,3.6,32.7,2.3C32.6,2.1,32.3,2,32,2h0c-0.3,0-0.5,0.1-0.7,0.3C30,3.6,29,5.1,28.4,6.8C27,6.3,25.5,6,24.1,6
	c-0.6,0-1,0.4-1.1,0.9C23,7,23,7,23,7C23.2,13.1,25.8,15.7,31.9,16z M38.9,8.1c-0.4,3.5-1.6,5.1-4.6,5.7c0,0,0,0,0-0.1
	c1.1-1.4,1.7-3.1,1.7-4.9C36.9,8.4,37.9,8.2,38.9,8.1z M32,4.5c1,1.1,1.7,2.4,2,3.8c0,0,0,0,0,0.1c0.2,1.6-0.4,3.2-1.9,5.1
	c-1.6-1.9-2.2-3.5-2-5.1c0,0,0-0.1,0-0.1C30.3,6.9,31,5.6,32,4.5z M28,8.8c0,0.8,0.1,1.6,0.4,2.3c0,0,0,0.1,0,0.1
	c0,0.1,0.1,0.3,0.1,0.4s0.1,0.3,0.2,0.4c0,0.1,0.1,0.2,0.1,0.3c0.1,0.2,0.2,0.4,0.4,0.7l0,0.1c0.1,0.2,0.3,0.4,0.4,0.7
	c-3-0.6-4.3-2.2-4.6-5.6C26.1,8.2,27.1,8.4,28,8.8L28,8.8z"/>
<rect x="58" y="56" width="2" height="2"/>
<rect x="58" y="60" width="2" height="2"/>
<rect x="60" y="58" width="2" height="2"/>
<rect x="56" y="58" width="2" height="2"/>
<rect x="53" y="32" width="2" height="2"/>
<rect x="53" y="36" width="2" height="2"/>
<rect x="55" y="34" width="2" height="2"/>
<rect x="51" y="34" width="2" height="2"/>
<rect x="11" y="27" width="2" height="2"/>
<rect x="11" y="31" width="2" height="2"/>
<rect x="13" y="29" width="2" height="2"/>
<rect x="9" y="29" width="2" height="2"/>
<rect x="4" y="56" width="2" height="2"/>
<rect x="4" y="60" width="2" height="2"/>
<rect x="6" y="58" width="2" height="2"/>
<rect x="2" y="58" width="2" height="2"/>
<path d="M27,36.7v5l-4.4,8.2c-0.8,1.4-0.2,3.1,1.2,3.9c0.4,0.2,0.9,0.3,1.4,0.3H31v4.9c0,1.5,1,2.8,2.5,3.1c1.6,0.3,3.2-0.8,3.5-2.5
	c0-0.2,0-0.3,0-0.5V36.7c4.8-2.8,6.4-8.9,3.7-13.7c-1-1.7-2.4-3-4.1-3.9l0,0c-1.5-0.7-3.3-0.5-4.6,0.6c-1.3-1.1-3.1-1.3-4.6-0.5
	C24.1,20.9,22,24.3,22,28C22,31.6,23.9,34.9,27,36.7z M32,22c1.5,0,2.9,0.7,3.9,1.8c1,1.2,1.3,2.7,1,4.2c-0.2,0.7-0.5,1.4-0.9,2
	c0-0.1,0-0.2,0-0.2c0-2.2-1.8-4-4-4s-4,1.8-4,4c0,0.1,0,0.1,0,0.2c-1.7-2.2-1.2-5.3,1-7C29.8,22.4,30.9,22,32,22z M32,31.8
	c-1.1,0-2-0.9-2-2s0.9-2,2-2c1.1,0,2,0.9,2,2S33.1,31.8,32,31.8z M28.4,20.9c0.2-0.1,0.4-0.2,0.6-0.2c-3.5,1.7-4.9,5.9-3.2,9.4
	c1.7,3.5,5.9,4.9,9.4,3.2s4.9-5.9,3.2-9.4c-0.7-1.4-1.8-2.6-3.3-3.2c0.2,0,0.4,0.1,0.6,0.2l0,0c3.9,2,5.5,6.8,3.4,10.8
	c-0.8,1.5-2,2.7-3.6,3.5C35.2,35.3,35,35.7,35,36v23c0,0.3-0.1,0.6-0.4,0.8C34.4,60,34.1,60,33.8,60c-0.5-0.1-0.8-0.6-0.8-1.1V53
	c0-0.6-0.4-1-1-1h-6.9c-0.5,0-0.9-0.4-0.9-0.9c0-0.1,0-0.3,0.1-0.4l4.5-8.4C29,42.2,29,42,29,41.9v-5.8c0-0.4-0.2-0.7-0.6-0.9
	C25.7,33.8,24,31.1,24,28C24,25,25.7,22.3,28.4,20.9z"/>
<path d="M27.1,49.5c0.2,0.3,0.5,0.5,0.9,0.5h4c0.6,0,1-0.4,1-1v-5c0-0.6-0.4-1-1-1h-1.2c-0.4,0-0.7,0.2-0.9,0.5l-2.8,5
	C27,48.8,27,49.2,27.1,49.5z M31,45.7V48h-1.3L31,45.7z"/>
<rect x="43" y="13" width="4" height="2"/>
<rect x="43" y="3" transform="matrix(0.7071 -0.7071 0.7071 0.7071 10.3521 32.9914)" width="4" height="2"/>
<rect x="17" y="13" width="4" height="2"/>
<rect x="18" y="2" transform="matrix(0.7071 -0.7071 0.7071 0.7071 2.7364 14.607)" width="2" height="4"/>
</svg>
