<?xml version="1.0" encoding="utf-8"?>
<!-- Generator: Adobe Illustrator 23.0.0, SVG Export Plug-In . SVG Version: 6.00 Build 0)  -->
<svg version="1.1" id="Layer_1" xmlns="http://www.w3.org/2000/svg" xmlns:xlink="http://www.w3.org/1999/xlink" x="0px" y="0px"
	 viewBox="0 0 100 99.9" style="enable-background:new 0 0 100 99.9;" xml:space="preserve">
<g>
	<g>
		<path d="M60.8,93.3H39.2c-0.8,0-1.5-0.7-1.5-1.5V71.4L19.9,81.6c-0.3,0.2-0.8,0.3-1.1,0.2c-0.4-0.1-0.7-0.4-0.9-0.7L7,62.3
			c-0.2-0.3-0.3-0.8-0.2-1.1c0.1-0.4,0.4-0.7,0.7-0.9L25.3,50L7.6,39.8c-0.7-0.4-1-1.3-0.5-2l10.8-18.8c0.4-0.7,1.3-1,2-0.5
			l17.7,10.2V8.2c0-0.8,0.7-1.5,1.5-1.5h21.7c0.8,0,1.5,0.7,1.5,1.5v20.5l17.7-10.2c0.7-0.4,1.6-0.2,2,0.5L93,37.7
			c0.4,0.7,0.2,1.6-0.5,2L74.7,50l17.7,10.2c0.3,0.2,0.6,0.5,0.7,0.9c0.1,0.4,0,0.8-0.2,1.1L82.1,81.1c-0.2,0.3-0.5,0.6-0.9,0.7
			c-0.4,0.1-0.8,0-1.1-0.2L62.3,71.4v20.5C62.3,92.7,61.7,93.3,60.8,93.3z M40.7,90.3h18.7V68.8c0-0.5,0.3-1,0.8-1.3
			c0.5-0.3,1-0.3,1.5,0l18.7,10.8l9.3-16.2L70.9,51.3c-0.5-0.3-0.8-0.8-0.8-1.3s0.3-1,0.8-1.3l18.7-10.8l-9.3-16.2L61.6,32.5
			c-0.5,0.3-1,0.3-1.5,0c-0.5-0.3-0.8-0.8-0.8-1.3V9.7H40.7v21.6c0,0.5-0.3,1-0.8,1.3c-0.5,0.3-1,0.3-1.5,0L19.7,21.7l-9.3,16.2
			l18.7,10.8c0.5,0.3,0.8,0.8,0.8,1.3s-0.3,1-0.8,1.3L10.4,62.1l9.3,16.2l18.7-10.8c0.5-0.3,1-0.3,1.5,0c0.5,0.3,0.8,0.8,0.8,1.3
			L40.7,90.3L40.7,90.3z"/>
	</g>
</g>
</svg>
