<?xml version="1.0" encoding="utf-8"?>
<!-- Generator: Adobe Illustrator 23.0.0, SVG Export Plug-In . SVG Version: 6.00 Build 0)  -->
<svg version="1.1" id="Layer_1" xmlns="http://www.w3.org/2000/svg" xmlns:xlink="http://www.w3.org/1999/xlink" x="0px" y="0px"
	 viewBox="0 0 100 100.3" style="enable-background:new 0 0 100 100.3;" xml:space="preserve">
<g>
	<path d="M78.2,4.9H28.1c0,0,0,0,0,0s0,0,0,0c-4.5,0-8.2,3.7-8.2,8.2v60.4c0,4.5,3.7,8.2,8.2,8.2c0,0,0,0,0,0h2.7v11.5
		c0,0.8,0.5,1.6,1.3,1.9c0.8,0.3,1.6,0.1,2.2-0.5l3.5-3.8l3.5,3.8c0.4,0.4,0.9,0.6,1.5,0.6c0.2,0,0.5,0,0.7-0.1
		c0.8-0.3,1.3-1,1.3-1.9V81.8h33.4c0,0,0,0,0,0c1.1,0,2-0.9,2-2V67.4V6.9C80.2,5.8,79.3,4.9,78.2,4.9z M30,8.9h46.1v56.4H30V8.9z
		 M26,9.4v56.2c-0.8,0.2-1.5,0.5-2.2,0.9V13.1C23.8,11.5,24.7,10.2,26,9.4z M28,77.8L28,77.8c-2.3,0-4.2-1.9-4.2-4.2
		c0-2.3,1.9-4.2,4.2-4.2h48.1v2.2H28c-1.1,0-2,0.9-2,2s0.9,2,2,2h2.7v2.2H28z M40.8,88.3l-1.5-1.6c-0.4-0.4-0.9-0.6-1.5-0.6
		c-0.6,0-1.1,0.2-1.5,0.6l-1.5,1.6V75.6h6L40.8,88.3L40.8,88.3z M44.8,75.6h31.4v2.2H44.8V75.6z"/>
	<path d="M64.2,17.4H42c-1.1,0-2,0.9-2,2v11.5c0,1.1,0.9,2,2,2h22.2c1.1,0,2-0.9,2-2V19.4C66.2,18.3,65.3,17.4,64.2,17.4z
		 M62.2,28.8H44v-7.5h18.2V28.8z"/>
</g>
</svg>
