<?xml version="1.0" encoding="utf-8"?>
<!-- Generator: Adobe Illustrator 23.0.0, SVG Export Plug-In . SVG Version: 6.00 Build 0)  -->
<svg version="1.1" id="Layer_1" xmlns="http://www.w3.org/2000/svg" xmlns:xlink="http://www.w3.org/1999/xlink" x="0px" y="0px"
	 viewBox="0 0 512 512" style="enable-background:new 0 0 512 512;" xml:space="preserve">
<g>
	<path d="M501.3,202.7H362.7v-160c0-5.9-4.8-10.7-10.7-10.7H10.7C4.8,32,0,36.8,0,42.7V320c0,5.9,4.8,10.7,10.7,10.7h32v64l115.2-64
		h55.5v96c0,5.9,4.8,10.7,10.7,10.7h170.7l74.7,42.7v-42.7h32c5.9,0,10.7-4.8,10.7-10.7V213.3C512,207.4,507.2,202.7,501.3,202.7z
		 M152.3,309.3l-4.8,2.7L64,358.4v-27.8v-21.3H42.7H21.3v-256h320v256H157.9H152.3z M490.7,416h-21.3H448v21.3v5.9l-42.8-24.4
		l-4.9-2.8h-5.7h-160v-85.3H352c5.9,0,10.7-4.8,10.7-10.7v-96h128V416z"/>
	<path d="M181.4,96c-16.7,0-30,5.1-39.5,15.1c-15,15.8-13.9,37.9-13.9,38.9l0,0c0.3,5.6,4.9,10.1,10.6,10.1
		c5.9,0,10.7-4.8,10.7-10.7c0-0.2,0-0.3,0-0.5h0c0-0.1-0.5-14.2,8.2-23.2c5.3-5.5,13.3-8.3,23.9-8.3c12.7,0,21.2,3.1,26.1,9.4
		c3.9,5,5.8,12.6,5.9,22.6c0,7.1-6.1,16.3-17.3,25.9c-9.7,8.3-19.7,13.8-19.8,13.9l-5.6,3l0,31.9h0v0c0,5.9,4.8,10.7,10.7,10.7
		S192,229.9,192,224c0-0.2,0-0.4,0-0.6l0-18.8c13-8.1,42.7-29.4,42.7-55.2C234.6,114.9,215.7,96,181.4,96z"/>
	<path d="M181.3,245.3c-5.9,0-10.7,4.8-10.7,10.7c0,5.9,4.8,10.7,10.7,10.7S192,261.9,192,256S187.2,245.3,181.3,245.3z"/>
</g>
</svg>
