<?xml version="1.0" encoding="utf-8"?>
<!-- Generator: Adobe Illustrator 23.0.0, SVG Export Plug-In . SVG Version: 6.00 Build 0)  -->
<svg version="1.1"
	 id="Layer_1" xmlns:cc="http://creativecommons.org/ns#" xmlns:dc="http://purl.org/dc/elements/1.1/" xmlns:inkscape="http://www.inkscape.org/namespaces/inkscape" xmlns:rdf="http://www.w3.org/1999/02/22-rdf-syntax-ns#" xmlns:sodipodi="http://sodipodi.sourceforge.net/DTD/sodipodi-0.dtd" xmlns:svg="http://www.w3.org/2000/svg"
	 xmlns="http://www.w3.org/2000/svg" xmlns:xlink="http://www.w3.org/1999/xlink" x="0px" y="0px" viewBox="0 0 100 99.8"
	 style="enable-background:new 0 0 100 99.8;" xml:space="preserve">
<g transform="translate(0,-952.36218)">
	<path d="M46.8,961.3c-1,0.1-1.8,1-1.8,2v4.2c-0.2,0-0.3,0.1-0.5,0.1c-0.4,0.1-0.7,0.2-1,0.3l-4.1-4.1c-0.7-0.7-2.1-0.7-2.8,0l-6,6
		c-0.7,0.7-0.7,2.1,0,2.8l3.9,3.9c-0.1,0.2-0.3,0.4-0.4,0.6c-0.2,0.4-0.3,0.8-0.4,1.1H29c-1,0-2,1-2,2v8c0,1,1,2,2,2h4.7
		c0.2,0.4,0.3,0.7,0.4,1.1c0.1,0.2,0.3,0.4,0.4,0.6l-3.9,3.9c-0.7,0.7-0.7,2.1,0,2.8l6,6c0.7,0.7,2.1,0.7,2.8,0l4.1-4.1
		c0.3,0.1,0.7,0.3,1,0.3c0.2,0,0.3,0.1,0.5,0.1v4.2c0,1,1,2,2,2h8c1,0,2-1,2-2v-4.2c0.2,0,0.3-0.1,0.5-0.1c0.4-0.1,0.7-0.2,1.1-0.3
		l4,4c0.7,0.7,2.1,0.7,2.8,0l6-6c0.7-0.7,0.7-2.1,0-2.8l-3.9-3.9c0.1-0.2,0.3-0.3,0.4-0.6c0.2-0.4,0.3-0.7,0.4-1.1H73c1,0,2-1,2-2
		c0-2.4,0-5.3,0-8c0-1-1-2-2-2h-4.7c-0.2-0.4-0.3-0.8-0.5-1.1c-0.1-0.2-0.3-0.4-0.4-0.6l3.9-3.9c0.7-0.7,0.7-2.1,0-2.8l-6-6
		c-0.7-0.7-2.1-0.7-2.8,0l-4.1,4.1c-0.3-0.1-0.7-0.2-1-0.3c-0.2,0-0.3-0.1-0.5-0.1v-4.2c0-1-1-2-2-2
		C52.3,961.3,49.5,961.3,46.8,961.3z M49,965.3h4v4c0,1.1,1.1,2.1,2.2,2c0.7-0.1,2.5,0.5,2.5,0.6c0.8,0.6,2,0.5,2.7-0.2l3.6-3.6
		l3.1,3.2l-3.6,3.6c-0.7,0.7-0.8,2.1,0,2.8c-0.1-0.1,0.4,0.6,0.8,1.3c0.3,0.7,0.7,1.5,0.8,1.8c0.2,0.9,1.1,1.5,1.9,1.5h4v4h-4
		c-0.9,0-1.7,0.6-1.9,1.5c-0.1,0.3-0.4,1.1-0.8,1.8c-0.3,0.7-0.9,1.4-0.8,1.3c-0.7,0.7-0.7,2.1,0,2.8l3.6,3.6l-3.1,3.1l-3.6-3.6
		c-0.7-0.7-1.9-0.8-2.6-0.2c-0.4,0.2-0.9,0.3-1.3,0.4c-0.4,0.1-0.8,0.2-1.2,0.2c-1.1-0.2-2.3,0.8-2.3,2v4h-4v-4c0-1.2-1.2-2.2-2.4-2
		c0.1,0-0.9-0.1-1.2-0.2c-0.4-0.1-0.8-0.2-1.2-0.4c-0.8-0.6-1.9-0.5-2.6,0.2l-3.6,3.6l-3.2-3.2l3.6-3.6c0.7-0.7,0.7-2,0-2.8
		c0.1,0.1-0.4-0.6-0.8-1.3c-0.3-0.7-0.7-1.5-0.8-1.8c-0.2-0.9-1.1-1.5-1.9-1.5h-4v-4h4c0.9,0,1.7-0.7,1.9-1.5
		c0.1-0.3,0.4-1.1,0.8-1.8c0.3-0.7,0.8-1.4,0.8-1.3c0.7-0.7,0.7-2.1,0-2.8l-3.6-3.6l3.2-3.2l3.6,3.6c0.7,0.7,1.8,0.8,2.6,0.2
		c0.4-0.2,0.9-0.3,1.3-0.4c0.4-0.1,0.9-0.2,1.3-0.2c1.1,0.1,2.3-0.9,2.3-2L49,965.3z M51,975.3c-4.9,0-9,4.1-9,9s4.1,9,9,9
		s9-4.1,9-9S56,975.3,51,975.3z M51,979.3c2.8,0,5,2.2,5,5s-2.2,5-5,5c-2.8,0-5-2.2-5-5S48.2,979.3,51,979.3z M73.9,1006.3
		c-0.3,0-0.6,0.1-0.9,0.3l-9,5c-0.9,0.5-1.3,1.8-0.8,2.7c0.5,0.9,1.8,1.3,2.7,0.8l9-5c0.8-0.4,1.3-1.4,1-2.3
		S74.8,1006.2,73.9,1006.3L73.9,1006.3z M82,1010.3c-0.3,0-0.6,0.1-0.9,0.2l-13,7c-0.9,0.5-1.3,1.8-0.8,2.7c0.5,0.9,1.8,1.3,2.7,0.8
		l13-7c0.8-0.4,1.3-1.4,1-2.3C83.7,1010.9,82.9,1010.2,82,1010.3z M25,1014.3c-2.2,0-5-0.1-7.8,1.1c-4,1.7-7.8,2.9-10,3.9
		c-0.7,0.3-1.2,1-1.2,1.8v18.3c0,1.4,0.6,2.1,1.3,2.7c0.7,0.7,1.6,1.4,3.1,1.2c4.2-0.7,8.4-1,12.6-0.9c16.1,0.3,22.8,0.9,36.9,0.9
		c0,0,0.1,0,0.1,0c2.3,0.1,4.7-0.8,7.3-2c2.6-1.2,5.5-2.9,8.3-4.7c5.6-3.6,11.2-7.7,14.4-9.6c0,0,0,0,0.1,0c0.9-0.6,1.6-1.1,2.2-1.5
		s1.2-0.9,1.5-1.8c0.3-0.9,0.1-1.9-0.2-2.5c-0.3-0.6-0.5-1.1-0.9-1.8c0,0-0.1-0.1-0.1-0.1c-0.3-0.5-0.6-0.9-0.9-1.4
		c-0.4-0.5-0.9-1.1-1.8-1.3c-1.6-0.6-3.1,0.1-4.9,1.1c0,0-0.1,0-0.1,0.1c-5.1,3.2-12.7,7.2-20,8.9c0-0.1,0-0.1,0-0.2v-3
		c0-2-1.4-3.1-2.7-3.8c-1.3-0.7-2.8-1.2-4.3-1.2H44.3C40,1017.1,32.8,1014.2,25,1014.3L25,1014.3z M25,1018.3
		c6.9-0.1,13.6,2.7,18.5,3.9c0.2,0,0.3,0.1,0.5,0.1h14c0.7,0,1.7,0.3,2.3,0.7c0.5,0.3,0.6,0.6,0.7,0.6v2.6c0-0.1-0.2,0.2-0.7,0.5
		c-0.7,0.4-1.6,0.7-2.3,0.7h0h-0.2H44c-1.1,0-2,0.9-2,2s1,2,2,2h13.8h0.1c0,0,0,0,0.1,0h0c10.7,0.2,21.9-5.8,28.9-10.2
		c0,0,0.1,0,0.1-0.1c1-0.5,1.5-0.6,1.6-0.7c0.1,0.2,0.4,0.5,0.6,0.9c0.3,0.5,0.4,0.8,0.6,1.1c-0.4,0.3-1,0.7-1.8,1.3c0,0,0,0-0.1,0
		c-3.5,2.2-9,6.2-14.4,9.6c-2.7,1.7-5.5,3.3-7.8,4.4s-4.5,1.6-5.6,1.6c0,0,0,0-0.1,0c-14.1,0-20.8-0.7-37-0.9
		c-4.3,0-8.6,0.2-12.9,0.9c0-0.1-0.1-0.2-0.1-0.2v-16.6c1.9-0.8,5-1.8,8.8-3.4C20.5,1018.3,22.7,1018.3,25,1018.3L25,1018.3z"/>
</g>
</svg>
