<?xml version="1.0" encoding="utf-8"?>
<!-- Generator: Adobe Illustrator 23.0.0, SVG Export Plug-In . SVG Version: 6.00 Build 0)  -->
<svg version="1.1" xmlns="http://www.w3.org/2000/svg" xmlns:xlink="http://www.w3.org/1999/xlink" x="0px" y="0px"
	 viewBox="0 0 100 99.9" style="enable-background:new 0 0 100 99.9;" xml:space="preserve">
<g id="Layer_2">
</g>
<g id="Layer_1">
	<g>
		<path d="M60,36.1c-2.9,0-5.9,1.1-8.1,3.3L50,41.3l-1.9-1.9c-2.2-2.2-5.2-3.3-8.1-3.3c-3,0-6,1.2-8.3,3.5
			c-4.3,4.5-4.1,11.7,0.4,16.2l16.6,16.6c0.7,0.7,2,0.7,2.7,0l16.7-16.7c4.5-4.5,4.5-11.7,0-16.2C65.8,37.2,62.9,36.1,60,36.1z"/>
		<path d="M50,23.6c1.7,0,3-1.3,3-3V6.1c0-1.7-1.3-3-3-3s-3,1.3-3,3v14.5C47,22.3,48.3,23.6,50,23.6z"/>
		<path d="M32.2,30.1c1.3-1.1,1.4-3,0.4-4.2l-9.3-11.1c-1.1-1.3-3-1.4-4.2-0.4c-1.3,1.1-1.4,3-0.4,4.2L28,29.7
			c0.6,0.7,1.4,1.1,2.3,1.1C31,30.8,31.7,30.5,32.2,30.1z"/>
		<path d="M19.8,48.9c1.4,0,2.7-1,2.9-2.5c0.3-1.6-0.8-3.2-2.4-3.5L6,40.5c-1.6-0.3-3.2,0.8-3.5,2.4c-0.3,1.6,0.8,3.2,2.4,3.5
			l14.4,2.5C19.5,48.9,19.6,48.9,19.8,48.9z"/>
		<path d="M21.9,64L9.4,71.3C8,72.1,7.5,74,8.3,75.4c0.6,1,1.6,1.5,2.6,1.5c0.5,0,1-0.1,1.5-0.4L25,69.2c1.4-0.8,1.9-2.7,1.1-4.1
			C25.2,63.7,23.4,63.2,21.9,64z"/>
		<path d="M40.5,77.3c-1.6-0.6-3.3,0.2-3.8,1.8l-5,13.6c-0.6,1.6,0.2,3.3,1.8,3.8c0.3,0.1,0.7,0.2,1,0.2c1.2,0,2.4-0.8,2.8-2l5-13.6
			C42.9,79.5,42.1,77.8,40.5,77.3z"/>
		<path d="M63.3,79.1c-0.6-1.6-2.3-2.4-3.8-1.8c-1.6,0.6-2.4,2.3-1.8,3.8l5,13.6c0.4,1.2,1.6,2,2.8,2c0.3,0,0.7-0.1,1-0.2
			c1.6-0.6,2.4-2.3,1.8-3.8L63.3,79.1z"/>
		<path d="M90.6,71.3L78,64c-1.4-0.8-3.3-0.3-4.1,1.1c-0.8,1.4-0.3,3.3,1.1,4.1l12.6,7.3c0.5,0.3,1,0.4,1.5,0.4c1,0,2-0.5,2.6-1.5
			C92.6,73.9,92.1,72.1,90.6,71.3z"/>
		<path d="M97.5,42.9c-0.3-1.6-1.8-2.7-3.5-2.4L79.7,43c-1.6,0.3-2.7,1.8-2.4,3.5c0.3,1.5,1.5,2.5,2.9,2.5c0.2,0,0.3,0,0.5,0
			L95,46.4C96.7,46.1,97.7,44.5,97.5,42.9z"/>
		<path d="M81,14.3c-1.3-1.1-3.2-0.9-4.2,0.4l-9.3,11.1c-1.1,1.3-0.9,3.2,0.4,4.2c0.6,0.5,1.2,0.7,1.9,0.7c0.9,0,1.7-0.4,2.3-1.1
			l9.3-11.1C82.4,17.3,82.2,15.4,81,14.3z"/>
	</g>
</g>
</svg>
